<svg xmlns="http://www.w3.org/2000/svg" width="1320" height="1780" viewBox="0 0 1320 1780" role="img" aria-labelledby="title description">
  <title id="title">Household Assistant manual budget carry-forward mockups</title>
  <desc id="description">A mobile-first storyboard showing a previous-period surplus offered without automatic application, a review sheet, the applied allowance breakdown, and a desktop table containing both surplus and overrun carry actions.</desc>

  <defs>
    <filter id="phone-shadow" x="-20%" y="-10%" width="140%" height="135%">
      <feDropShadow dx="0" dy="10" stdDeviation="14" flood-color="#1D4E89" flood-opacity="0.18" />
    </filter>
    <filter id="panel-shadow" x="-10%" y="-15%" width="120%" height="140%">
      <feDropShadow dx="0" dy="8" stdDeviation="12" flood-color="#1D4E89" flood-opacity="0.13" />
    </filter>
    <style>
      text { font-family: system-ui, -apple-system, BlinkMacSystemFont, "Segoe UI", sans-serif; }
      .board-label { fill: #1D4E89; font-size: 13px; font-weight: 750; letter-spacing: 1.3px; }
      .heading { fill: #1D4E89; font-weight: 700; }
      .body { fill: #17312E; }
      .secondary { fill: #526966; }
      .eyebrow { fill: #526966; font-size: 9px; font-weight: 750; letter-spacing: 0.8px; }
      .money { fill: #1D4E89; font-weight: 720; font-variant-numeric: tabular-nums; }
      .button { font-size: 11px; font-weight: 720; }
      .danger { fill: #B42318; }
    </style>

    <g id="phone-shell">
      <rect width="390" height="760" rx="48" fill="#1D4E89" filter="url(#phone-shadow)" />
      <rect x="8" y="8" width="374" height="744" rx="40" fill="#F4FAFB" />
      <rect x="8" y="8" width="374" height="32" rx="40" fill="#FFFFFF" />
      <rect x="8" y="28" width="374" height="12" fill="#FFFFFF" />
      <text x="27" y="29" fill="#1D4E89" font-size="11" font-weight="700">9:41</text>
      <g fill="none" stroke="#1D4E89" stroke-width="1.5" stroke-linecap="round">
        <path d="M329 25c4-5 9-5 13 0" />
        <path d="M332 28c2-3 5-3 7 0" />
        <rect x="350" y="20" width="18" height="10" rx="2" />
      </g>
      <rect x="352.5" y="22.5" width="12.5" height="5" rx="1" fill="#1D4E89" />
      <rect x="8" y="40" width="374" height="56" fill="#FFFFFF" />
      <path d="M35 58 26 68l9 10M27 68h17" fill="none" stroke="#1D4E89" stroke-width="2" stroke-linecap="round" stroke-linejoin="round" />
      <text x="54" y="74" fill="#1D4E89" font-size="16" font-weight="700">Household Assistant</text>
      <line x1="8" y1="95.5" x2="382" y2="95.5" stroke="#C9E2E5" />
      <rect x="146" y="14" width="98" height="20" rx="10" fill="#1D4E89" />
    </g>

    <g id="nav-dock">
      <rect x="8" y="688" width="374" height="64" fill="#F4FAFB" fill-opacity="0.97" />
      <circle cx="195" cy="718" r="25" fill="#16679A" />
      <rect x="185" y="708" width="8" height="8" rx="2" fill="#3FC1C0" />
      <rect x="197" y="708" width="8" height="8" rx="2" fill="#FFFFFF" />
      <rect x="185" y="720" width="8" height="8" rx="2" fill="#FFFFFF" />
      <rect x="197" y="720" width="8" height="8" rx="2" fill="#3FC1C0" />
    </g>

    <g id="edit-icon">
      <rect width="36" height="36" rx="10" fill="#FFFFFF" stroke="#C9E2E5" />
      <path d="m11 25 2-8L24 6l6 6-11 11-8 2Z" fill="none" stroke="#16679A" stroke-width="1.6" stroke-linejoin="round" />
    </g>

    <g id="previous-button">
      <rect width="44" height="44" rx="10" fill="#FFFFFF" stroke="#C9E2E5" />
      <path d="m25 14-8 8 8 8" fill="none" stroke="#16679A" stroke-width="2" stroke-linecap="round" stroke-linejoin="round" />
    </g>

    <g id="next-button-disabled">
      <rect width="44" height="44" rx="10" fill="#EDF3F4" stroke="#D9E5E7" />
      <path d="m19 14 8 8-8 8" fill="none" stroke="#9CAFAF" stroke-width="2" stroke-linecap="round" stroke-linejoin="round" />
    </g>

    <g id="current-period-header">
      <text x="24" y="137" class="heading" font-size="28">Budgeting</text>
      <text x="24" y="178" class="heading" font-size="15">Weekly</text>
      <text x="81" y="178" class="secondary" font-size="10.5">1 line</text>
      <use href="#previous-button" x="188" y="151" />
      <rect x="236" y="151" width="82" height="44" rx="10" fill="#FFFFFF" stroke="#C9E2E5" />
      <text x="277" y="169" class="eyebrow" text-anchor="middle">THIS WEEK</text>
      <text x="277" y="185" class="heading" font-size="11" text-anchor="middle">27 JUL–2 AUG</text>
      <use href="#next-button-disabled" x="322" y="151" />
    </g>
  </defs>

  <rect width="1320" height="1780" fill="#E7F5F7" />
  <text x="48" y="54" fill="#1D4E89" font-size="30" font-weight="750">Manual carry-forward · visible first, applied only by choice</text>
  <text x="48" y="84" fill="#526966" font-size="15">The prior balance is contextual information until a household member reviews and confirms the period adjustment.</text>

  <g transform="translate(48 105)">
    <rect width="196" height="28" rx="14" fill="#DFF4F4" />
    <text x="98" y="19" fill="#16679A" font-size="11" font-weight="700" text-anchor="middle">NO AUTOMATIC ROLLOVER</text>
    <rect x="208" width="202" height="28" rx="14" fill="#FFFFFF" stroke="#C9E2E5" />
    <text x="309" y="19" fill="#526966" font-size="11" font-weight="700" text-anchor="middle">CONFIRM EVERY CHANGE</text>
    <rect x="422" width="214" height="28" rx="14" fill="#FFFFFF" stroke="#3FC1C0" />
    <text x="529" y="19" fill="#16679A" font-size="11" font-weight="700" text-anchor="middle">BASE + CARRY = ALLOWANCE</text>
    <rect x="648" width="212" height="28" rx="14" fill="#FFFFFF" stroke="#C9E2E5" />
    <text x="754" y="19" fill="#526966" font-size="11" font-weight="700" text-anchor="middle">WALLET STAYS UNCHANGED</text>
  </g>

  <text class="board-label" x="230" y="174" text-anchor="middle">01 · AVAILABLE · NOT APPLIED</text>
  <text class="board-label" x="660" y="174" text-anchor="middle">02 · REVIEW BEFORE APPLYING</text>
  <text class="board-label" x="1090" y="174" text-anchor="middle">03 · APPLIED ALLOWANCE</text>

  <!-- Phone 1: current period with pending surplus -->
  <g transform="translate(35 200)">
    <use href="#phone-shell" />
    <use href="#current-period-header" />

    <g transform="translate(24 211)">
      <rect width="342" height="408" rx="14" fill="#FFFFFF" stroke="#C9E2E5" />
      <text x="18" y="31" class="heading" font-size="17">Eating Out</text>
      <use href="#edit-icon" x="288" y="13" />
      <text x="18" y="54" class="secondary" font-size="11">Restaurants, cafes, and takeout</text>
      <rect x="18" y="68" width="118" height="24" rx="12" fill="#DFF4F4" />
      <text x="77" y="84" class="secondary" font-size="9" font-weight="700" text-anchor="middle">WEEKLY · 27 JUL–2 AUG</text>
      <text x="18" y="119" class="eyebrow">SPENT</text>
      <text x="324" y="119" class="eyebrow" text-anchor="end">REMAINING</text>
      <text x="18" y="143" class="money" font-size="18">¥2,100</text>
      <text x="324" y="143" class="money" font-size="18" text-anchor="end">¥12,900 left</text>
      <rect x="18" y="158" width="306" height="9" rx="4.5" fill="#DFF4F4" />
      <rect x="18" y="158" width="43" height="9" rx="4.5" fill="#16679A" />
      <text x="18" y="187" class="secondary" font-size="10">Base cap ¥15,000</text>
      <text x="324" y="187" class="secondary" font-size="10" font-weight="700" text-anchor="end">14%</text>

      <rect x="18" y="207" width="306" height="178" rx="12" fill="#F1FAFA" stroke="#3FC1C0" />
      <circle cx="39" cy="232" r="11" fill="#DFF4F4" />
      <path d="M34 232h10M41 228l4 4-4 4" fill="none" stroke="#16679A" stroke-width="1.5" stroke-linecap="round" stroke-linejoin="round" />
      <text x="58" y="228" class="eyebrow">LAST WEEK</text>
      <text x="58" y="247" class="heading" font-size="15">¥3,000 unused</text>
      <rect x="252" y="219" width="56" height="22" rx="11" fill="#FFFFFF" stroke="#C9E2E5" />
      <text x="280" y="234" fill="#16679A" font-size="8.5" font-weight="750" text-anchor="middle">PENDING</text>
      <text x="34" y="273" class="secondary" font-size="10.5">This is not included in the ¥15,000 allowance.</text>
      <rect x="34" y="293" width="274" height="48" rx="11" fill="#16679A" />
      <text x="171" y="322" fill="#FFFFFF" class="button" text-anchor="middle">Add ¥3,000 to this week</text>
      <text x="171" y="363" class="secondary" font-size="9.5" text-anchor="middle">Changes this period only · wallet unchanged</text>
    </g>
    <use href="#nav-dock" />
  </g>

  <!-- Phone 2: confirmation sheet -->
  <g transform="translate(465 200)">
    <use href="#phone-shell" />
    <use href="#current-period-header" />
    <g transform="translate(24 211)">
      <rect width="342" height="288" rx="14" fill="#FFFFFF" stroke="#C9E2E5" />
      <text x="18" y="31" class="heading" font-size="17">Eating Out</text>
      <text x="18" y="54" class="secondary" font-size="11">Current allowance ¥15,000</text>
      <rect x="18" y="78" width="306" height="9" rx="4.5" fill="#DFF4F4" />
      <rect x="18" y="78" width="43" height="9" rx="4.5" fill="#16679A" />
      <rect x="18" y="108" width="306" height="138" rx="12" fill="#F1FAFA" stroke="#3FC1C0" />
      <text x="34" y="135" class="eyebrow">PREVIOUS BALANCE AVAILABLE</text>
      <text x="34" y="162" class="money" font-size="20">+¥3,000</text>
      <text x="34" y="188" class="secondary" font-size="10.5">Waiting for your confirmation</text>
    </g>
    <rect x="8" y="96" width="374" height="656" fill="#17312E" fill-opacity="0.48" />

    <g transform="translate(8 292)">
      <rect width="374" height="460" rx="28" fill="#FFFFFF" filter="url(#panel-shadow)" />
      <rect x="159" y="12" width="56" height="5" rx="2.5" fill="#C9E2E5" />
      <text x="24" y="54" class="heading" font-size="20">Review carry-forward</text>
      <text x="24" y="78" class="secondary" font-size="11">Eating Out · 27 Jul–2 Aug</text>

      <rect x="24" y="100" width="326" height="79" rx="12" fill="#F4FAFB" stroke="#C9E2E5" />
      <text x="40" y="123" class="eyebrow">SOURCE · 20–26 JUL</text>
      <text x="40" y="150" class="secondary" font-size="11">¥12,000 spent of ¥15,000</text>
      <text x="334" y="150" class="money" font-size="16" text-anchor="end">+¥3,000</text>

      <text x="24" y="211" class="eyebrow">THIS WEEK'S ALLOWANCE</text>
      <text x="24" y="240" class="secondary" font-size="11">Base cap</text>
      <text x="334" y="240" class="money" font-size="14" text-anchor="end">¥15,000</text>
      <text x="24" y="267" class="secondary" font-size="11">Carry from last week</text>
      <text x="334" y="267" fill="#16679A" font-size="14" font-weight="720" text-anchor="end">+¥3,000</text>
      <line x1="24" y1="282" x2="350" y2="282" stroke="#C9E2E5" />
      <text x="24" y="309" class="heading" font-size="13">New allowance</text>
      <text x="334" y="309" class="money" font-size="19" text-anchor="end">¥18,000</text>

      <rect x="24" y="330" width="326" height="42" rx="10" fill="#F1FAFA" />
      <text x="187" y="347" class="secondary" font-size="9.5" text-anchor="middle">This changes the budget allowance only.</text>
      <text x="187" y="362" class="secondary" font-size="9.5" font-weight="700" text-anchor="middle">No money moves between wallets.</text>

      <rect x="24" y="388" width="104" height="48" rx="11" fill="#FFFFFF" stroke="#16679A" />
      <text x="76" y="417" fill="#16679A" class="button" text-anchor="middle">Back</text>
      <rect x="140" y="388" width="210" height="48" rx="11" fill="#16679A" />
      <text x="245" y="417" fill="#FFFFFF" class="button" text-anchor="middle">Apply +¥3,000</text>
    </g>
  </g>

  <!-- Phone 3: applied state -->
  <g transform="translate(895 200)">
    <use href="#phone-shell" />
    <use href="#current-period-header" />

    <g transform="translate(24 211)">
      <rect width="342" height="390" rx="14" fill="#FFFFFF" stroke="#3FC1C0" stroke-width="1.5" />
      <text x="18" y="31" class="heading" font-size="17">Eating Out</text>
      <use href="#edit-icon" x="288" y="13" />
      <text x="18" y="54" class="secondary" font-size="11">Restaurants, cafes, and takeout</text>
      <rect x="18" y="68" width="118" height="24" rx="12" fill="#DFF4F4" />
      <text x="77" y="84" class="secondary" font-size="9" font-weight="700" text-anchor="middle">WEEKLY · 27 JUL–2 AUG</text>
      <rect x="258" y="68" width="66" height="24" rx="12" fill="#DFF4F4" />
      <path d="m270 80 4 4 8-9" fill="none" stroke="#16679A" stroke-width="1.6" stroke-linecap="round" stroke-linejoin="round" />
      <text x="302" y="84" fill="#16679A" font-size="8.5" font-weight="750" text-anchor="middle">APPLIED</text>

      <text x="18" y="123" class="eyebrow">SPENT</text>
      <text x="324" y="123" class="eyebrow" text-anchor="end">REMAINING</text>
      <text x="18" y="147" class="money" font-size="18">¥2,100</text>
      <text x="324" y="147" class="money" font-size="18" text-anchor="end">¥15,900 left</text>
      <rect x="18" y="162" width="306" height="9" rx="4.5" fill="#DFF4F4" />
      <rect x="18" y="162" width="36" height="9" rx="4.5" fill="#16679A" />
      <text x="18" y="191" class="secondary" font-size="10">Allowance ¥18,000</text>
      <text x="324" y="191" class="secondary" font-size="10" font-weight="700" text-anchor="end">12%</text>

      <rect x="18" y="213" width="306" height="151" rx="12" fill="#F4FAFB" stroke="#C9E2E5" />
      <text x="34" y="239" class="eyebrow">ALLOWANCE BREAKDOWN</text>
      <text x="34" y="267" class="secondary" font-size="11">Base cap</text>
      <text x="308" y="267" class="money" font-size="13" text-anchor="end">¥15,000</text>
      <text x="34" y="295" class="secondary" font-size="11">Carry from 20–26 Jul</text>
      <text x="308" y="295" fill="#16679A" font-size="13" font-weight="720" text-anchor="end">+¥3,000</text>
      <line x1="34" y1="311" x2="308" y2="311" stroke="#C9E2E5" />
      <text x="34" y="338" class="heading" font-size="12">This week's allowance</text>
      <text x="308" y="338" class="money" font-size="15" text-anchor="end">¥18,000</text>
    </g>

    <rect x="24" y="620" width="342" height="48" rx="12" fill="#DFF4F4" stroke="#3FC1C0" />
    <path d="m42 642 5 5 10-12" fill="none" stroke="#16679A" stroke-width="1.8" stroke-linecap="round" stroke-linejoin="round" />
    <text x="68" y="648" fill="#16679A" font-size="11" font-weight="700">¥3,000 added to Eating Out</text>
    <use href="#nav-dock" />
  </g>

  <!-- Desktop adaptation -->
  <text class="board-label" x="660" y="1030" text-anchor="middle">04 · DESKTOP · SURPLUS, OVERRUN, AND APPLIED STATES</text>
  <g transform="translate(35 1056)">
    <rect width="1250" height="610" rx="20" fill="#1D4E89" filter="url(#panel-shadow)" />
    <rect x="5" y="5" width="1240" height="600" rx="16" fill="#F4FAFB" />
    <rect x="5" y="5" width="1240" height="56" rx="16" fill="#FFFFFF" />
    <rect x="5" y="47" width="1240" height="14" fill="#FFFFFF" />
    <path d="M34 24 25 33l9 9M26 33h18" fill="none" stroke="#1D4E89" stroke-width="2" stroke-linecap="round" stroke-linejoin="round" />
    <text x="58" y="39" class="heading" font-size="16">Household Assistant</text>
    <line x1="5" y1="60.5" x2="1245" y2="60.5" stroke="#C9E2E5" />

    <text x="34" y="105" class="heading" font-size="26">Budgeting</text>
    <text x="34" y="142" class="heading" font-size="16">Weekly</text>
    <text x="101" y="142" class="secondary" font-size="11">3 lines · current week</text>

    <g transform="translate(850 92)">
      <use href="#previous-button" />
      <rect x="52" width="142" height="44" rx="10" fill="#FFFFFF" stroke="#C9E2E5" />
      <text x="123" y="18" class="eyebrow" text-anchor="middle">THIS WEEK</text>
      <text x="123" y="34" class="heading" font-size="12" text-anchor="middle">27 JUL–2 AUG</text>
      <use href="#next-button-disabled" x="202" />
    </g>

    <g transform="translate(34 160)">
      <rect width="780" height="408" rx="12" fill="#FFFFFF" stroke="#C9E2E5" />
      <rect width="780" height="42" rx="12" fill="#DFF4F4" />
      <rect y="30" width="780" height="12" fill="#DFF4F4" />
      <text x="18" y="27" class="eyebrow">BUDGET LINE</text>
      <text x="238" y="27" class="eyebrow">SPENT / ALLOWANCE</text>
      <text x="430" y="27" class="eyebrow">DIFFERENCE</text>
      <text x="590" y="27" class="eyebrow">PREVIOUS BALANCE</text>

      <g transform="translate(0 42)">
        <line x1="0" y1="116" x2="780" y2="116" stroke="#E2ECEE" />
        <text x="18" y="31" class="heading" font-size="13">Eating Out</text>
        <text x="18" y="52" class="secondary" font-size="10">Eating out wallet</text>
        <text x="238" y="32" class="money" font-size="13">¥2,100 / ¥15,000</text>
        <rect x="238" y="47" width="150" height="7" rx="3.5" fill="#DFF4F4" />
        <rect x="238" y="47" width="21" height="7" rx="3.5" fill="#16679A" />
        <text x="430" y="32" class="money" font-size="13">¥12,900 left</text>
        <text x="590" y="28" fill="#16679A" font-size="11" font-weight="720">+¥3,000 unused</text>
        <text x="590" y="48" class="secondary" font-size="9.5">Not applied</text>
        <rect x="590" y="62" width="160" height="40" rx="10" fill="#16679A" />
        <text x="670" y="87" fill="#FFFFFF" class="button" text-anchor="middle">Add to this week</text>
      </g>

      <g transform="translate(0 158)">
        <line x1="0" y1="116" x2="780" y2="116" stroke="#E2ECEE" />
        <text x="18" y="31" class="heading" font-size="13">Transport</text>
        <text x="18" y="52" class="secondary" font-size="10">Everyday account</text>
        <text x="238" y="32" class="money" font-size="13">¥4,000 / ¥20,000</text>
        <rect x="238" y="47" width="150" height="7" rx="3.5" fill="#DFF4F4" />
        <rect x="238" y="47" width="30" height="7" rx="3.5" fill="#16679A" />
        <text x="430" y="32" class="money" font-size="13">¥16,000 left</text>
        <text x="590" y="28" class="danger" font-size="11" font-weight="720">−¥2,500 over</text>
        <text x="590" y="48" class="secondary" font-size="9.5">Not applied</text>
        <rect x="590" y="62" width="160" height="40" rx="10" fill="#FFFFFF" stroke="#B42318" />
        <text x="670" y="87" class="danger button" text-anchor="middle">Subtract from week</text>
      </g>

      <g transform="translate(0 274)">
        <text x="18" y="31" class="heading" font-size="13">Weekly Groceries</text>
        <text x="18" y="52" class="secondary" font-size="10">Household account</text>
        <text x="238" y="32" class="money" font-size="13">¥6,800 / ¥18,600</text>
        <rect x="238" y="47" width="150" height="7" rx="3.5" fill="#DFF4F4" />
        <rect x="238" y="47" width="55" height="7" rx="3.5" fill="#16679A" />
        <text x="430" y="32" class="money" font-size="13">¥11,800 left</text>
        <rect x="590" y="13" width="76" height="24" rx="12" fill="#DFF4F4" />
        <path d="m602 25 4 4 8-9" fill="none" stroke="#16679A" stroke-width="1.5" stroke-linecap="round" stroke-linejoin="round" />
        <text x="642" y="29" fill="#16679A" font-size="8.5" font-weight="750" text-anchor="middle">APPLIED</text>
        <text x="590" y="56" class="secondary" font-size="9.5">Base ¥12,000 · Carry +¥6,600</text>
      </g>
    </g>

    <g transform="translate(838 160)">
      <rect width="378" height="408" rx="14" fill="#FFFFFF" stroke="#C9E2E5" />
      <text x="24" y="37" class="heading" font-size="18">Subtract prior overrun?</text>
      <text x="24" y="60" class="secondary" font-size="11">Transport · 27 Jul–2 Aug</text>
      <rect x="24" y="82" width="330" height="74" rx="11" fill="#FFF4F2" stroke="#F1B8B0" />
      <text x="40" y="106" class="eyebrow">LAST WEEK</text>
      <text x="40" y="133" class="secondary" font-size="11">¥22,500 spent of ¥20,000</text>
      <text x="338" y="133" class="danger" font-size="15" font-weight="720" text-anchor="end">−¥2,500</text>

      <text x="24" y="193" class="eyebrow">THIS WEEK'S ALLOWANCE</text>
      <text x="24" y="224" class="secondary" font-size="11">Base cap</text>
      <text x="338" y="224" class="money" font-size="13" text-anchor="end">¥20,000</text>
      <text x="24" y="253" class="secondary" font-size="11">Prior overrun</text>
      <text x="338" y="253" class="danger" font-size="13" font-weight="720" text-anchor="end">−¥2,500</text>
      <line x1="24" y1="270" x2="354" y2="270" stroke="#C9E2E5" />
      <text x="24" y="299" class="heading" font-size="12">New allowance</text>
      <text x="338" y="299" class="money" font-size="18" text-anchor="end">¥17,500</text>

      <rect x="24" y="323" width="330" height="40" rx="10" fill="#F4FAFB" />
      <text x="189" y="340" class="secondary" font-size="9.5" text-anchor="middle">Allowance only · wallet balance unchanged</text>
      <text x="189" y="354" class="secondary" font-size="9.5" text-anchor="middle">Nothing changes until Confirm is selected.</text>
      <rect x="24" y="378" width="100" height="44" rx="10" fill="#FFFFFF" stroke="#16679A" />
      <text x="74" y="405" fill="#16679A" class="button" text-anchor="middle">Back</text>
      <rect x="136" y="378" width="218" height="44" rx="10" fill="#B42318" />
      <text x="245" y="405" fill="#FFFFFF" class="button" text-anchor="middle">Confirm −¥2,500</text>
    </g>
  </g>

  <text x="48" y="1712" fill="#526966" font-size="12">Decision note: if subtraction makes the allowance zero or negative, replace the utilization bar with an explicit starting-deficit message.</text>
  <text x="48" y="1737" fill="#526966" font-size="12">The action appears only for the current period; historical views show applied carry as read-only context.</text>
</svg>
