<svg xmlns="http://www.w3.org/2000/svg" width="1320" height="1740" viewBox="0 0 1320 1740" role="img" aria-labelledby="title description">
  <title id="title">Household Assistant spend versus cap view inventory</title>
  <desc id="description">A mobile-first decision board showing exact spend and remaining values with supporting utilization bars, over-cap and zero-cap treatments, partial loading and failure states, and a desktop table adaptation.</desc>

  <defs>
    <filter id="phone-shadow" x="-20%" y="-10%" width="140%" height="135%">
      <feDropShadow dx="0" dy="10" stdDeviation="14" flood-color="#1D4E89" flood-opacity="0.18" />
    </filter>
    <filter id="panel-shadow" x="-10%" y="-15%" width="120%" height="140%">
      <feDropShadow dx="0" dy="8" stdDeviation="12" flood-color="#1D4E89" flood-opacity="0.13" />
    </filter>
    <style>
      text { font-family: Inter, system-ui, -apple-system, BlinkMacSystemFont, "Segoe UI", sans-serif; }
      .board-label { fill: #1D4E89; font-size: 13px; font-weight: 750; letter-spacing: 1.3px; }
      .heading { fill: #1D4E89; font-weight: 700; }
      .body { fill: #17312E; }
      .secondary { fill: #526966; }
      .eyebrow { fill: #526966; font-size: 9px; font-weight: 750; letter-spacing: 0.8px; }
      .money { fill: #1D4E89; font-weight: 700; }
    </style>

    <g id="phone-shell">
      <rect width="390" height="720" rx="48" fill="#1D4E89" filter="url(#phone-shadow)" />
      <rect x="8" y="8" width="374" height="704" rx="40" fill="#F4FAFB" />
      <rect x="8" y="8" width="374" height="32" rx="40" fill="#FFFFFF" />
      <rect x="8" y="28" width="374" height="12" fill="#FFFFFF" />
      <text x="27" y="29" fill="#1D4E89" font-size="11" font-weight="700">9:41</text>
      <g fill="none" stroke="#1D4E89" stroke-width="1.5" stroke-linecap="round">
        <path d="M329 25c4-5 9-5 13 0" />
        <path d="M332 28c2-3 5-3 7 0" />
        <rect x="350" y="20" width="18" height="10" rx="2" />
      </g>
      <rect x="352.5" y="22.5" width="12.5" height="5" rx="1" fill="#1D4E89" />
      <rect x="8" y="40" width="374" height="56" fill="#FFFFFF" />
      <path d="M35 58 26 68l9 10M27 68h17" fill="none" stroke="#1D4E89" stroke-width="2" stroke-linecap="round" stroke-linejoin="round" />
      <text x="54" y="74" fill="#1D4E89" font-size="16" font-weight="700">Household Assistant</text>
      <line x1="8" y1="95.5" x2="382" y2="95.5" stroke="#C9E2E5" />
      <rect x="146" y="14" width="98" height="20" rx="10" fill="#1D4E89" />
    </g>

    <g id="nav-dock">
      <rect x="8" y="640" width="374" height="72" fill="#F4FAFB" fill-opacity="0.97" />
      <circle cx="195" cy="674" r="27" fill="#16679A" />
      <rect x="184" y="663" width="9" height="9" rx="2" fill="#3FC1C0" />
      <rect x="198" y="663" width="9" height="9" rx="2" fill="#FFFFFF" />
      <rect x="184" y="677" width="9" height="9" rx="2" fill="#FFFFFF" />
      <rect x="198" y="677" width="9" height="9" rx="2" fill="#3FC1C0" />
    </g>

    <g id="edit-icon">
      <rect width="34" height="34" rx="9" fill="#FFFFFF" stroke="#C9E2E5" />
      <path d="m10 23 2-8L23 4l6 6-11 11-8 2Z" fill="none" stroke="#16679A" stroke-width="1.6" stroke-linejoin="round" transform="scale(.72) translate(4 5)" />
    </g>

    <g id="page-heading">
      <text x="24" y="137" class="heading" font-size="28">Budgeting</text>
      <text x="24" y="169" class="heading" font-size="15">Active budget lines</text>
      <text x="366" y="169" class="secondary" font-size="11" text-anchor="end">As of 24 Jul</text>
    </g>
  </defs>

  <rect width="1320" height="1740" fill="#E7F5F7" />
  <text x="48" y="54" fill="#1D4E89" font-size="30" font-weight="750">Budget utilization · exact amounts lead, progress supports</text>
  <text x="48" y="84" fill="#526966" font-size="15">Per-line windows stay independent. Never combine WEEKLY and MONTHLY caps into one household total.</text>

  <g transform="translate(48 105)">
    <rect width="178" height="28" rx="14" fill="#DFF4F4" />
    <text x="89" y="19" fill="#16679A" font-size="11" font-weight="700" text-anchor="middle">HALF-OPEN BUCKETS</text>
    <rect x="190" width="206" height="28" rx="14" fill="#FFFFFF" stroke="#C9E2E5" />
    <text x="293" y="19" fill="#526966" font-size="11" font-weight="700" text-anchor="middle">EXACT DIFFERENCE · ALWAYS</text>
    <rect x="408" width="218" height="28" rx="14" fill="#FFFFFF" stroke="#3FC1C0" />
    <text x="517" y="19" fill="#16679A" font-size="11" font-weight="700" text-anchor="middle">BAR IS SUPPORTING SIGNAL</text>
    <rect x="638" width="230" height="28" rx="14" fill="#FFFFFF" stroke="#C9E2E5" />
    <text x="753" y="19" fill="#526966" font-size="11" font-weight="700" text-anchor="middle">RECOMMEND API BOUNDARIES</text>
  </g>

  <text class="board-label" x="230" y="174" text-anchor="middle">01 · CURRENT UTILIZATION</text>
  <text class="board-label" x="660" y="174" text-anchor="middle">02 · LIMIT STATES</text>
  <text class="board-label" x="1090" y="174" text-anchor="middle">03 · PARTIAL DATA STATES</text>

  <!-- Current utilization -->
  <g transform="translate(35 200)">
    <use href="#phone-shell" />
    <use href="#page-heading" />

    <g transform="translate(24 187)">
      <rect width="342" height="196" rx="12" fill="#FFFFFF" stroke="#C9E2E5" />
      <text x="18" y="28" class="heading" font-size="17">Monthly Groceries</text>
      <use href="#edit-icon" x="290" y="12" />
      <text x="18" y="51" class="secondary" font-size="11">Supermarket and pantry spending</text>
      <rect x="18" y="66" width="106" height="24" rx="12" fill="#DFF4F4" />
      <text x="71" y="82" class="secondary" font-size="9" font-weight="700" text-anchor="middle">MONTHLY · JUL 2026</text>

      <text x="18" y="116" class="eyebrow">SPENT</text>
      <text x="324" y="116" class="eyebrow" text-anchor="end">REMAINING</text>
      <text x="18" y="139" class="money" font-size="17">¥46,200</text>
      <text x="324" y="139" class="money" font-size="17" text-anchor="end">¥28,800 left</text>
      <rect x="18" y="153" width="306" height="10" rx="5" fill="#DFF4F4" />
      <rect x="18" y="153" width="190" height="10" rx="5" fill="#16679A" />
      <text x="18" y="182" class="secondary" font-size="10">Cap ¥75,000</text>
      <text x="324" y="182" class="secondary" font-size="10" font-weight="700" text-anchor="end">62%</text>
    </g>

    <g transform="translate(24 397)">
      <rect width="342" height="196" rx="12" fill="#FFFFFF" stroke="#C9E2E5" />
      <text x="18" y="28" class="heading" font-size="17">Eating Out</text>
      <use href="#edit-icon" x="290" y="12" />
      <text x="18" y="51" class="secondary" font-size="11">Restaurants, cafes, and takeout</text>
      <rect x="18" y="66" width="116" height="24" rx="12" fill="#DFF4F4" />
      <text x="76" y="82" class="secondary" font-size="9" font-weight="700" text-anchor="middle">WEEKLY · 20–26 JUL</text>

      <text x="18" y="116" class="eyebrow">SPENT</text>
      <text x="324" y="116" class="eyebrow" text-anchor="end">REMAINING</text>
      <text x="18" y="139" class="money" font-size="17">¥12,000</text>
      <text x="324" y="139" class="money" font-size="17" text-anchor="end">¥3,000 left</text>
      <rect x="18" y="153" width="306" height="10" rx="5" fill="#DFF4F4" />
      <rect x="18" y="153" width="245" height="10" rx="5" fill="#16679A" />
      <text x="18" y="182" class="secondary" font-size="10">Cap ¥15,000</text>
      <text x="324" y="182" class="secondary" font-size="10" font-weight="700" text-anchor="end">80%</text>
    </g>
    <use href="#nav-dock" />
  </g>

  <!-- Limit states -->
  <g transform="translate(465 200)">
    <use href="#phone-shell" />
    <use href="#page-heading" />

    <g transform="translate(24 187)">
      <rect width="342" height="196" rx="12" fill="#FFFFFF" stroke="#B42318" />
      <rect width="4" height="196" rx="2" fill="#B42318" />
      <text x="18" y="28" class="heading" font-size="17">Transport</text>
      <use href="#edit-icon" x="290" y="12" />
      <text x="18" y="51" class="secondary" font-size="11">Trains, buses, taxis, and IC top-ups</text>
      <rect x="18" y="66" width="106" height="24" rx="12" fill="#DFF4F4" />
      <text x="71" y="82" class="secondary" font-size="9" font-weight="700" text-anchor="middle">MONTHLY · JUL 2026</text>

      <text x="18" y="116" class="eyebrow">SPENT</text>
      <text x="324" y="116" fill="#B42318" font-size="9" font-weight="750" letter-spacing=".8" text-anchor="end">OVER CAP</text>
      <text x="18" y="139" class="money" font-size="17">¥22,000</text>
      <text x="324" y="139" fill="#B42318" font-size="17" font-weight="700" text-anchor="end">¥2,000 over</text>
      <rect x="18" y="153" width="306" height="10" rx="5" fill="#FDECEC" />
      <rect x="18" y="153" width="306" height="10" rx="5" fill="#B42318" />
      <text x="18" y="182" class="secondary" font-size="10">Cap ¥20,000</text>
      <text x="324" y="182" fill="#B42318" font-size="10" font-weight="700" text-anchor="end">110%</text>
    </g>

    <g transform="translate(24 397)">
      <rect width="342" height="170" rx="12" fill="#FFFFFF" stroke="#C9E2E5" />
      <text x="18" y="28" class="heading" font-size="17">Home repairs</text>
      <use href="#edit-icon" x="290" y="12" />
      <text x="18" y="51" class="secondary" font-size="11">Unplanned household maintenance</text>
      <rect x="18" y="66" width="106" height="24" rx="12" fill="#DFF4F4" />
      <text x="71" y="82" class="secondary" font-size="9" font-weight="700" text-anchor="middle">MONTHLY · JUL 2026</text>

      <text x="18" y="116" class="eyebrow">SPENT</text>
      <text x="324" y="116" class="eyebrow" text-anchor="end">CAP</text>
      <text x="18" y="140" class="money" font-size="17">¥2,000</text>
      <text x="324" y="140" class="secondary" font-size="14" font-weight="700" text-anchor="end">No cap set</text>
      <text x="18" y="158" class="secondary" font-size="10">Utilization bar omitted when cap is ¥0</text>
    </g>
    <use href="#nav-dock" />
  </g>

  <!-- Partial states -->
  <g transform="translate(895 200)">
    <use href="#phone-shell" />
    <use href="#page-heading" />

    <g transform="translate(24 187)">
      <rect width="342" height="188" rx="12" fill="#FFFFFF" stroke="#C9E2E5" />
      <text x="18" y="28" class="heading" font-size="17">Monthly Groceries</text>
      <use href="#edit-icon" x="290" y="12" />
      <text x="18" y="51" class="secondary" font-size="11">Supermarket and pantry spending</text>
      <rect x="18" y="66" width="106" height="24" rx="12" fill="#DFF4F4" />
      <text x="71" y="82" class="secondary" font-size="9" font-weight="700" text-anchor="middle">MONTHLY · JUL 2026</text>
      <text x="18" y="112" class="eyebrow">SPENDING</text>
      <rect x="18" y="124" width="92" height="16" rx="8" fill="#DDE9EB" />
      <rect x="236" y="124" width="88" height="16" rx="8" fill="#DDE9EB" />
      <rect x="18" y="151" width="306" height="10" rx="5" fill="#DDE9EB" />
      <rect x="18" y="174" width="70" height="8" rx="4" fill="#DDE9EB" />
      <text x="324" y="180" class="secondary" font-size="9" text-anchor="end">Budget remains editable</text>
    </g>

    <g transform="translate(24 393)">
      <rect width="342" height="182" rx="12" fill="#FFFFFF" stroke="#C9E2E5" />
      <text x="18" y="28" class="heading" font-size="17">Eating Out</text>
      <use href="#edit-icon" x="290" y="12" />
      <text x="18" y="51" class="secondary" font-size="11">Restaurants, cafes, and takeout</text>
      <rect x="18" y="66" width="116" height="24" rx="12" fill="#DFF4F4" />
      <text x="76" y="82" class="secondary" font-size="9" font-weight="700" text-anchor="middle">WEEKLY · 20–26 JUL</text>
      <rect x="18" y="104" width="306" height="58" rx="9" fill="#F4FAFB" stroke="#C9E2E5" />
      <circle cx="43" cy="133" r="13" fill="#FDECEC" />
      <text x="43" y="138" fill="#B42318" font-size="15" font-weight="700" text-anchor="middle">!</text>
      <text x="64" y="128" class="body" font-size="11" font-weight="700">Spending unavailable</text>
      <text x="64" y="145" class="secondary" font-size="9.5">Budget details are still available.</text>
      <rect x="262" y="119" width="48" height="28" rx="7" fill="#FFFFFF" stroke="#16679A" />
      <text x="286" y="137" fill="#16679A" font-size="9.5" font-weight="700" text-anchor="middle">Retry</text>
    </g>
    <use href="#nav-dock" />
  </g>

  <!-- Desktop -->
  <text class="board-label" x="660" y="978" text-anchor="middle">04 · MEDIUM+ BUDGET UTILIZATION TABLE</text>
  <g transform="translate(35 1004)">
    <rect width="1250" height="570" rx="20" fill="#1D4E89" filter="url(#panel-shadow)" />
    <rect x="5" y="5" width="1240" height="560" rx="16" fill="#F4FAFB" />
    <rect x="5" y="5" width="1240" height="56" rx="16" fill="#FFFFFF" />
    <rect x="5" y="47" width="1240" height="14" fill="#FFFFFF" />
    <path d="M34 24 25 33l9 9M26 33h18" fill="none" stroke="#1D4E89" stroke-width="2" stroke-linecap="round" stroke-linejoin="round" />
    <text x="58" y="39" class="heading" font-size="16">Household Assistant</text>
    <line x1="5" y1="60.5" x2="1245" y2="60.5" stroke="#C9E2E5" />

    <text x="34" y="105" class="heading" font-size="26">Budgeting</text>
    <text x="1216" y="102" class="secondary" font-size="12" text-anchor="end">As of 24 Jul 2026</text>
    <text x="34" y="139" class="heading" font-size="15">Active budget lines</text>
    <text x="1216" y="139" class="secondary" font-size="11" text-anchor="end">4 lines · 1 over cap</text>

    <g transform="translate(34 157)">
      <rect width="1182" height="342" rx="12" fill="#FFFFFF" stroke="#C9E2E5" />
      <rect width="1182" height="44" rx="12" fill="#DFF4F4" />
      <rect y="32" width="1182" height="12" fill="#DFF4F4" />
      <g class="eyebrow">
        <text x="20" y="27">BUDGET LINE</text>
        <text x="322" y="27">WINDOW</text>
        <text x="480" y="27">SPENT / CAP</text>
        <text x="832" y="27">DIFFERENCE</text>
        <text x="1010" y="27">SLACK</text>
      </g>

      <g transform="translate(0 44)">
        <text x="20" y="30" class="heading" font-size="14">Eating Out</text>
        <text x="20" y="49" class="secondary" font-size="10">Restaurants, cafes, and takeout</text>
        <text x="322" y="38" class="secondary" font-size="12">20–26 Jul</text>
        <text x="480" y="27" class="money" font-size="12">¥12,000 / ¥15,000</text>
        <rect x="480" y="38" width="270" height="8" rx="4" fill="#DFF4F4" />
        <rect x="480" y="38" width="216" height="8" rx="4" fill="#16679A" />
        <text x="800" y="46" class="secondary" font-size="10" text-anchor="end">80%</text>
        <text x="832" y="38" class="money" font-size="13">¥3,000 left</text>
        <text x="1010" y="38" class="secondary" font-size="12">On</text>
        <text x="1150" y="38" fill="#16679A" font-size="12" font-weight="700">Edit</text>
        <line x1="20" y1="68" x2="1162" y2="68" stroke="#C9E2E5" />
      </g>

      <g transform="translate(0 112)">
        <text x="20" y="30" class="heading" font-size="14">Monthly Groceries</text>
        <text x="20" y="49" class="secondary" font-size="10">Supermarket and pantry spending</text>
        <text x="322" y="38" class="secondary" font-size="12">Jul 2026</text>
        <text x="480" y="27" class="money" font-size="12">¥46,200 / ¥75,000</text>
        <rect x="480" y="38" width="270" height="8" rx="4" fill="#DFF4F4" />
        <rect x="480" y="38" width="167" height="8" rx="4" fill="#16679A" />
        <text x="800" y="46" class="secondary" font-size="10" text-anchor="end">62%</text>
        <text x="832" y="38" class="money" font-size="13">¥28,800 left</text>
        <text x="1010" y="38" class="secondary" font-size="12">On</text>
        <text x="1150" y="38" fill="#16679A" font-size="12" font-weight="700">Edit</text>
        <line x1="20" y1="68" x2="1162" y2="68" stroke="#C9E2E5" />
      </g>

      <g transform="translate(0 180)">
        <text x="20" y="30" class="heading" font-size="14">Mortgage</text>
        <text x="20" y="49" class="secondary" font-size="10">Fixed monthly household obligation</text>
        <text x="322" y="38" class="secondary" font-size="12">Jul 2026</text>
        <text x="480" y="27" class="money" font-size="12">¥0 / ¥120,000</text>
        <rect x="480" y="38" width="270" height="8" rx="4" fill="#DFF4F4" />
        <text x="800" y="46" class="secondary" font-size="10" text-anchor="end">0%</text>
        <text x="832" y="38" class="money" font-size="13">¥120,000 left</text>
        <text x="1010" y="38" class="secondary" font-size="12">Off</text>
        <text x="1150" y="38" fill="#16679A" font-size="12" font-weight="700">Edit</text>
        <line x1="20" y1="68" x2="1162" y2="68" stroke="#C9E2E5" />
      </g>

      <g transform="translate(0 248)">
        <text x="20" y="30" class="heading" font-size="14">Transport</text>
        <text x="20" y="49" class="secondary" font-size="10">Trains, buses, taxis, and IC top-ups</text>
        <text x="322" y="38" class="secondary" font-size="12">Jul 2026</text>
        <text x="480" y="27" class="money" font-size="12">¥22,000 / ¥20,000</text>
        <rect x="480" y="38" width="270" height="8" rx="4" fill="#FDECEC" />
        <rect x="480" y="38" width="270" height="8" rx="4" fill="#B42318" />
        <text x="800" y="46" fill="#B42318" font-size="10" font-weight="700" text-anchor="end">110%</text>
        <text x="832" y="38" fill="#B42318" font-size="13" font-weight="700">¥2,000 over</text>
        <text x="1010" y="38" class="secondary" font-size="12">On</text>
        <text x="1150" y="38" fill="#16679A" font-size="12" font-weight="700">Edit</text>
      </g>
    </g>

    <circle cx="625" cy="535" r="25" fill="#16679A" />
    <rect x="615" y="525" width="8" height="8" rx="2" fill="#3FC1C0" />
    <rect x="627" y="525" width="8" height="8" rx="2" fill="#FFFFFF" />
    <rect x="615" y="537" width="8" height="8" rx="2" fill="#FFFFFF" />
    <rect x="627" y="537" width="8" height="8" rx="2" fill="#3FC1C0" />
  </g>

  <g transform="translate(48 1610)">
    <rect width="1224" height="1" fill="#C9E2E5" />
    <circle cx="15" cy="40" r="8" fill="#3FC1C0" />
    <text x="32" y="36" class="heading" font-size="12">Decision</text>
    <text x="32" y="55" class="secondary" font-size="12">Progress communicates utilization only. Exact “left” or “over” amounts remain the primary financial status.</text>
    <circle cx="635" cy="40" r="8" fill="#16679A" />
    <text x="652" y="36" class="heading" font-size="12">Data contract</text>
    <text x="652" y="55" class="secondary" font-size="12">Keep budget details usable when the spend projection is loading or unavailable.</text>
    <text x="612" y="102" class="secondary" font-size="11" text-anchor="middle">No global combined bar · clamp visual fill at 100% · announce the real percentage and exact currency values</text>
  </g>
</svg>
