<svg xmlns="http://www.w3.org/2000/svg" width="1320" height="3220" viewBox="0 0 1320 3220" role="img" aria-labelledby="title description">
  <title id="title">Gpipi shopping list management view inventory</title>
  <desc id="description">A mobile-first storyboard for managing shopping items added through Slack: active list, history, item editing, reversible removal and restoration, system states, and a desktop table adaptation. No screen contains an add action or permanent deletion.</desc>

  <defs>
    <filter id="phone-shadow" x="-20%" y="-10%" width="140%" height="130%">
      <feDropShadow dx="0" dy="10" stdDeviation="14" flood-color="#1D4E89" flood-opacity="0.18" />
    </filter>
    <filter id="sheet-shadow" x="-15%" y="-20%" width="130%" height="150%">
      <feDropShadow dx="0" dy="-5" stdDeviation="10" flood-color="#1D4E89" flood-opacity="0.14" />
    </filter>
    <filter id="dialog-shadow" x="-20%" y="-20%" width="140%" height="160%">
      <feDropShadow dx="0" dy="8" stdDeviation="16" flood-color="#1D4E89" flood-opacity="0.20" />
    </filter>
    <filter id="panel-shadow" x="-10%" y="-15%" width="120%" height="140%">
      <feDropShadow dx="0" dy="8" stdDeviation="12" flood-color="#1D4E89" flood-opacity="0.13" />
    </filter>

    <style>
      text { font-family: Inter, system-ui, -apple-system, BlinkMacSystemFont, "Segoe UI", sans-serif; }
      .board-label { fill: #1D4E89; font-size: 13px; font-weight: 750; letter-spacing: 1.25px; }
      .board-note { fill: #526966; font-size: 12px; }
      .heading { fill: #1D4E89; font-weight: 700; }
      .body { fill: #17312E; }
      .secondary { fill: #526966; }
      .field-label { fill: #526966; font-size: 10px; font-weight: 750; letter-spacing: .7px; }
      .button-label { font-size: 13px; font-weight: 700; text-anchor: middle; }
    </style>

    <g id="phone-shell">
      <rect width="390" height="720" rx="48" fill="#1D4E89" filter="url(#phone-shadow)" />
      <rect x="8" y="8" width="374" height="704" rx="40" fill="#F4FAFB" />
      <rect x="8" y="8" width="374" height="32" rx="40" fill="#FFFFFF" />
      <rect x="8" y="28" width="374" height="12" fill="#FFFFFF" />
      <text x="27" y="29" fill="#1D4E89" font-size="11" font-weight="700">9:41</text>
      <g fill="none" stroke="#1D4E89" stroke-width="1.5" stroke-linecap="round">
        <path d="M329 25c4-5 9-5 13 0" />
        <path d="M332 28c2-3 5-3 7 0" />
        <rect x="350" y="20" width="18" height="10" rx="2" />
      </g>
      <rect x="352.5" y="22.5" width="12.5" height="5" rx="1" fill="#1D4E89" />
      <rect x="8" y="40" width="374" height="56" fill="#FFFFFF" />
      <path d="M35 58 26 68l9 10M27 68h17" fill="none" stroke="#1D4E89" stroke-width="2" stroke-linecap="round" stroke-linejoin="round" />
      <text x="54" y="74" fill="#1D4E89" font-size="16" font-weight="700">gpipi</text>
      <line x1="8" y1="95.5" x2="382" y2="95.5" stroke="#C9E2E5" />
      <rect x="146" y="14" width="98" height="20" rx="10" fill="#1D4E89" />
    </g>

    <g id="nav-dock">
      <rect x="8" y="640" width="374" height="72" fill="#F4FAFB" fill-opacity=".98" />
      <line x1="8" y1="640" x2="382" y2="640" stroke="#D9E9EB" />
      <circle cx="195" cy="674" r="27" fill="#16679A" />
      <rect x="184" y="663" width="9" height="9" rx="2" fill="#3FC1C0" />
      <rect x="198" y="663" width="9" height="9" rx="2" fill="#FFFFFF" />
      <rect x="184" y="677" width="9" height="9" rx="2" fill="#FFFFFF" />
      <rect x="198" y="677" width="9" height="9" rx="2" fill="#3FC1C0" />
    </g>

    <g id="shopping-heading">
      <text x="24" y="137" class="heading" font-size="28">Shopping list</text>
      <text x="24" y="162" class="secondary" font-size="12">Manage items already added through Slack.</text>
      <rect x="24" y="180" width="342" height="40" rx="10" fill="#E5EFF1" />
      <rect x="27" y="183" width="167" height="34" rx="8" fill="#FFFFFF" stroke="#C9E2E5" />
      <text x="110" y="204" class="heading" font-size="12" text-anchor="middle">Active 4</text>
      <text x="280" y="204" class="secondary" font-size="12" font-weight="650" text-anchor="middle">History 3</text>
    </g>

    <g id="edit-icon">
      <rect width="42" height="42" rx="10" fill="#FFFFFF" stroke="#C9E2E5" />
      <path d="m12 30 2-8L27 9l6 6-13 13-8 2Zm13-19 6 6" fill="none" stroke="#16679A" stroke-width="1.7" stroke-linejoin="round" />
    </g>

    <g id="active-list">
      <g transform="translate(24 240)">
        <rect width="342" height="94" rx="12" fill="#FFFFFF" stroke="#C9E2E5" />
        <circle cx="20" cy="24" r="7" fill="#DFF4F4" stroke="#3FC1C0" />
        <text x="38" y="28" class="heading" font-size="15">Milk</text>
        <text x="38" y="50" class="body" font-size="11.5">1 carton · low fat</text>
        <line x1="38" y1="63" x2="276" y2="63" stroke="#E2EEF0" />
        <text x="38" y="81" class="secondary" font-size="9.5">Junda · Today, 08:24</text>
        <use href="#edit-icon" x="286" y="14" />
      </g>
      <g transform="translate(24 346)">
        <rect width="342" height="94" rx="12" fill="#FFFFFF" stroke="#C9E2E5" />
        <circle cx="20" cy="24" r="7" fill="#DFF4F4" stroke="#3FC1C0" />
        <text x="38" y="28" class="heading" font-size="15">Ground beef</text>
        <text x="38" y="50" class="body" font-size="11.5">1 kg · for hamburgers</text>
        <line x1="38" y1="63" x2="276" y2="63" stroke="#E2EEF0" />
        <text x="38" y="81" class="secondary" font-size="9.5">Wulan · Yesterday, 18:06</text>
        <use href="#edit-icon" x="286" y="14" />
      </g>
      <g transform="translate(24 452)">
        <rect width="342" height="94" rx="12" fill="#FFFFFF" stroke="#C9E2E5" />
        <circle cx="20" cy="24" r="7" fill="#DFF4F4" stroke="#3FC1C0" />
        <text x="38" y="28" class="heading" font-size="15">Diapers</text>
        <text x="38" y="50" class="body" font-size="11.5">Size L · for night</text>
        <line x1="38" y1="63" x2="276" y2="63" stroke="#E2EEF0" />
        <text x="38" y="81" class="secondary" font-size="9.5">Wulan · 25 Jul, 21:40</text>
        <use href="#edit-icon" x="286" y="14" />
      </g>
    </g>

    <g id="drawer-handle">
      <rect x="177" y="8" width="36" height="4" rx="2" fill="#526966" opacity=".5" />
    </g>
  </defs>

  <rect width="1320" height="3220" fill="#E7F5F7" />
  <text x="48" y="55" fill="#1D4E89" font-size="30" font-weight="750">Shopping list management · web is for correction, Slack is for capture</text>
  <text x="48" y="86" fill="#526966" font-size="15">Removal is immediate and reversible. No web view exposes an Add or permanent-delete control.</text>

  <g transform="translate(48 110)">
    <rect width="160" height="28" rx="14" fill="#DFF4F4" />
    <text x="80" y="19" fill="#16679A" font-size="11" font-weight="700" text-anchor="middle">SLACK-ONLY CAPTURE</text>
    <rect x="172" width="184" height="28" rx="14" fill="#FFFFFF" stroke="#C9E2E5" />
    <text x="264" y="19" fill="#526966" font-size="11" font-weight="700" text-anchor="middle">REVERSIBLE REMOVE</text>
    <rect x="368" width="180" height="28" rx="14" fill="#FFFFFF" stroke="#C9E2E5" />
    <text x="458" y="19" fill="#526966" font-size="11" font-weight="700" text-anchor="middle">NO HARD DELETE</text>
  </g>

  <text class="board-label" x="230" y="182" text-anchor="middle">01 · ACTIVE LIST</text>
  <text class="board-label" x="660" y="182" text-anchor="middle">02 · EDIT ITEM</text>
  <text class="board-label" x="1090" y="182" text-anchor="middle">03 · REMOVE + UNDO</text>

  <!-- Active list -->
  <g transform="translate(35 202)">
    <use href="#phone-shell" />
    <use href="#shopping-heading" />
    <use href="#active-list" />
    <text x="24" y="586" class="secondary" font-size="10.5">New items are added from your household Slack channel.</text>
    <use href="#nav-dock" />
  </g>

  <!-- Edit item sheet -->
  <g transform="translate(465 202)">
    <use href="#phone-shell" />
    <use href="#shopping-heading" />
    <use href="#active-list" opacity=".72" />
    <rect x="8" y="96" width="374" height="616" fill="#1D4E89" opacity=".32" />
    <g transform="translate(0 196)" filter="url(#sheet-shadow)">
      <path d="M8 18q0-18 18-18h338q18 0 18 18v498H8Z" fill="#FFFFFF" />
      <use href="#drawer-handle" />
      <text x="28" y="52" class="heading" font-size="20">Edit item</text>
      <path d="m344 35 16 16m0-16-16 16" fill="none" stroke="#526966" stroke-width="2" stroke-linecap="round" />
      <line x1="8" y1="70" x2="382" y2="70" stroke="#C9E2E5" />

      <text x="28" y="102" class="field-label">ITEM</text>
      <rect x="28" y="112" width="334" height="48" rx="9" fill="#FFFFFF" stroke="#16679A" stroke-width="1.5" />
      <text x="42" y="142" class="body" font-size="14">Milk</text>

      <text x="28" y="190" class="field-label">QUANTITY</text>
      <rect x="28" y="200" width="334" height="48" rx="9" fill="#FFFFFF" stroke="#C9E2E5" />
      <text x="42" y="230" class="body" font-size="14">1 carton</text>

      <text x="28" y="278" class="field-label">NOTE</text>
      <rect x="28" y="288" width="334" height="64" rx="9" fill="#FFFFFF" stroke="#C9E2E5" />
      <text x="42" y="318" class="body" font-size="14">low fat</text>

      <rect x="28" y="374" width="334" height="46" rx="9" fill="#16679A" />
      <text x="195" y="403" fill="#FFFFFF" class="button-label">Save changes</text>
      <rect x="28" y="432" width="334" height="46" rx="9" fill="#FFFFFF" stroke="#B42318" />
      <text x="195" y="461" fill="#B42318" class="button-label">Remove from list</text>
    </g>
  </g>

  <!-- Immediate remove feedback with Undo -->
  <g transform="translate(895 202)">
    <use href="#phone-shell" />
    <use href="#shopping-heading" />
    <rect x="24" y="180" width="342" height="40" rx="10" fill="#E5EFF1" />
    <rect x="27" y="183" width="167" height="34" rx="8" fill="#FFFFFF" stroke="#C9E2E5" />
    <text x="110" y="204" class="heading" font-size="12" text-anchor="middle">Active 3</text>
    <text x="280" y="204" class="secondary" font-size="12" font-weight="650" text-anchor="middle">History 4</text>
    <rect x="24" y="240" width="342" height="56" rx="10" fill="#DFF4F4" stroke="#3FC1C0" />
    <circle cx="48" cy="268" r="12" fill="#FFFFFF" />
    <path d="M42 268h12" fill="none" stroke="#16679A" stroke-width="2" stroke-linecap="round" />
    <text x="69" y="265" class="body" font-size="12" font-weight="700">Milk removed from the list</text>
    <text x="69" y="281" class="secondary" font-size="10">Its history was kept.</text>
    <rect x="302" y="251" width="50" height="34" rx="8" fill="#FFFFFF" stroke="#16679A" />
    <text x="327" y="273" fill="#16679A" font-size="10.5" font-weight="700" text-anchor="middle">Undo</text>
    <g transform="translate(24 312)">
      <rect width="342" height="94" rx="12" fill="#FFFFFF" stroke="#C9E2E5" />
      <circle cx="20" cy="24" r="7" fill="#DFF4F4" stroke="#3FC1C0" />
      <text x="38" y="28" class="heading" font-size="15">Ground beef</text>
      <text x="38" y="50" class="body" font-size="11.5">1 kg · for hamburgers</text>
      <text x="38" y="79" class="secondary" font-size="9.5">Wulan · Yesterday, 18:06</text>
      <use href="#edit-icon" x="286" y="14" />
    </g>
    <g transform="translate(24 418)">
      <rect width="342" height="94" rx="12" fill="#FFFFFF" stroke="#C9E2E5" />
      <circle cx="20" cy="24" r="7" fill="#DFF4F4" stroke="#3FC1C0" />
      <text x="38" y="28" class="heading" font-size="15">Diapers</text>
      <text x="38" y="50" class="body" font-size="11.5">Size L · for night</text>
      <text x="38" y="79" class="secondary" font-size="9.5">Wulan · 25 Jul, 21:40</text>
      <use href="#edit-icon" x="286" y="14" />
    </g>
    <use href="#nav-dock" />
  </g>

  <line x1="48" y1="958" x2="1272" y2="958" stroke="#C9E2E5" />
  <text class="board-label" x="230" y="1002" text-anchor="middle">04 · REMOVED ITEM DETAIL</text>
  <text class="board-label" x="660" y="1002" text-anchor="middle">05 · HISTORY</text>
  <text class="board-label" x="1090" y="1002" text-anchor="middle">06 · SAVED FEEDBACK</text>

  <!-- Removed item detail -->
  <g transform="translate(35 1022)">
    <use href="#phone-shell" />
    <use href="#shopping-heading" />
    <use href="#active-list" opacity=".72" />
    <rect x="24" y="180" width="342" height="40" rx="10" fill="#E5EFF1" />
    <text x="110" y="204" class="secondary" font-size="12" font-weight="650" text-anchor="middle">Active 3</text>
    <rect x="196" y="183" width="167" height="34" rx="8" fill="#FFFFFF" stroke="#C9E2E5" />
    <text x="280" y="204" class="heading" font-size="12" text-anchor="middle">History 4</text>
    <rect x="8" y="96" width="374" height="616" fill="#1D4E89" opacity=".32" />
    <g transform="translate(0 262)" filter="url(#sheet-shadow)">
      <path d="M8 18q0-18 18-18h338q18 0 18 18v432H8Z" fill="#FFFFFF" />
      <use href="#drawer-handle" />
      <text x="28" y="52" class="heading" font-size="20">Removed item</text>
      <path d="m344 35 16 16m0-16-16 16" fill="none" stroke="#526966" stroke-width="2" stroke-linecap="round" />
      <line x1="8" y1="70" x2="382" y2="70" stroke="#C9E2E5" />
      <rect x="28" y="92" width="70" height="24" rx="12" fill="#E5EFF1" />
      <text x="63" y="108" class="secondary" font-size="9" font-weight="700" text-anchor="middle">REMOVED</text>
      <text x="28" y="148" class="heading" font-size="18">Milk</text>
      <text x="28" y="174" class="body" font-size="13">1 carton · low fat</text>
      <line x1="28" y1="198" x2="362" y2="198" stroke="#C9E2E5" />
      <text x="28" y="226" class="field-label">ADDED</text>
      <text x="28" y="248" class="body" font-size="12">Today, 08:24 by Junda</text>
      <text x="28" y="282" class="field-label">REMOVED</text>
      <text x="28" y="304" class="body" font-size="12">Today, 09:12 by Wulan</text>
      <rect x="28" y="334" width="334" height="46" rx="9" fill="#16679A" />
      <text x="195" y="363" fill="#FFFFFF" class="button-label">Restore to active list</text>
      <text x="195" y="408" class="secondary" font-size="10.5" text-anchor="middle">The audit history remains attached to this item.</text>
    </g>
  </g>

  <!-- History tab -->
  <g transform="translate(465 1022)">
    <use href="#phone-shell" />
    <text x="24" y="137" class="heading" font-size="28">Shopping list</text>
    <text x="24" y="162" class="secondary" font-size="12">Manage items already added through Slack.</text>
    <rect x="24" y="180" width="342" height="40" rx="10" fill="#E5EFF1" />
    <text x="110" y="204" class="secondary" font-size="12" font-weight="650" text-anchor="middle">Active 3</text>
    <rect x="196" y="183" width="167" height="34" rx="8" fill="#FFFFFF" stroke="#C9E2E5" />
    <text x="280" y="204" class="heading" font-size="12" text-anchor="middle">History 4</text>

    <g transform="translate(24 240)">
      <rect width="342" height="104" rx="12" fill="#FFFFFF" stroke="#C9E2E5" />
      <rect x="16" y="16" width="72" height="22" rx="11" fill="#E5EFF1" />
      <text x="52" y="31" class="secondary" font-size="8.5" font-weight="700" text-anchor="middle">REMOVED</text>
      <text x="16" y="61" class="heading" font-size="15">Dish soap</text>
      <text x="16" y="82" class="secondary" font-size="10.5">Removed 22 Jul by Junda</text>
      <rect x="244" y="52" width="82" height="36" rx="8" fill="#FFFFFF" stroke="#16679A" />
      <text x="285" y="75" fill="#16679A" font-size="11" font-weight="700" text-anchor="middle">Restore</text>
    </g>
    <g transform="translate(24 356)">
      <rect width="342" height="104" rx="12" fill="#FFFFFF" stroke="#C9E2E5" />
      <rect x="16" y="16" width="53" height="22" rx="11" fill="#DFF4F4" />
      <text x="42.5" y="31" class="secondary" font-size="8.5" font-weight="700" text-anchor="middle">BOUGHT</text>
      <text x="16" y="61" class="heading" font-size="15">Eggs</text>
      <text x="16" y="82" class="secondary" font-size="10.5">Bought 26 Jul by Wulan</text>
      <rect x="244" y="52" width="82" height="36" rx="8" fill="#FFFFFF" stroke="#C9E2E5" />
      <text x="285" y="75" class="secondary" font-size="11" font-weight="700" text-anchor="middle">View</text>
    </g>
    <g transform="translate(24 472)">
      <rect width="342" height="104" rx="12" fill="#FFFFFF" stroke="#C9E2E5" />
      <rect x="16" y="16" width="53" height="22" rx="11" fill="#DFF4F4" />
      <text x="42.5" y="31" class="secondary" font-size="8.5" font-weight="700" text-anchor="middle">BOUGHT</text>
      <text x="16" y="61" class="heading" font-size="15">Coffee filters</text>
      <text x="16" y="82" class="secondary" font-size="10.5">Bought 21 Jul by Junda</text>
      <rect x="244" y="52" width="82" height="36" rx="8" fill="#FFFFFF" stroke="#C9E2E5" />
      <text x="285" y="75" class="secondary" font-size="11" font-weight="700" text-anchor="middle">View</text>
    </g>
    <use href="#nav-dock" />
  </g>

  <!-- Saved state -->
  <g transform="translate(895 1022)">
    <use href="#phone-shell" />
    <use href="#shopping-heading" />
    <rect x="24" y="240" width="342" height="52" rx="10" fill="#DFF4F4" stroke="#3FC1C0" />
    <circle cx="48" cy="266" r="12" fill="#FFFFFF" />
    <path d="m42 266 4 4 8-9" fill="none" stroke="#16679A" stroke-width="2" stroke-linecap="round" stroke-linejoin="round" />
    <text x="69" y="263" class="body" font-size="12" font-weight="700">Milk updated</text>
    <text x="69" y="279" class="secondary" font-size="10">The active list is up to date.</text>
    <g transform="translate(24 308)">
      <rect width="342" height="100" rx="12" fill="#FFFFFF" stroke="#3FC1C0" stroke-width="1.5" />
      <rect width="4" height="100" rx="2" fill="#3FC1C0" />
      <circle cx="22" cy="26" r="7" fill="#DFF4F4" stroke="#3FC1C0" />
      <text x="42" y="30" class="heading" font-size="15">Whole milk</text>
      <text x="42" y="52" class="body" font-size="11.5">2 cartons · for breakfast</text>
      <line x1="42" y1="66" x2="276" y2="66" stroke="#E2EEF0" />
      <text x="42" y="84" class="secondary" font-size="9.5">Edited just now by Junda</text>
      <use href="#edit-icon" x="286" y="14" />
    </g>
    <g transform="translate(24 420)">
      <rect width="342" height="94" rx="12" fill="#FFFFFF" stroke="#C9E2E5" />
      <text x="18" y="28" class="heading" font-size="15">Ground beef</text>
      <text x="18" y="50" class="body" font-size="11.5">1 kg · for hamburgers</text>
      <text x="18" y="78" class="secondary" font-size="9.5">Wulan · Yesterday, 18:06</text>
      <use href="#edit-icon" x="286" y="14" />
    </g>
    <use href="#nav-dock" />
  </g>

  <line x1="48" y1="1778" x2="1272" y2="1778" stroke="#C9E2E5" />
  <text class="board-label" x="230" y="1822" text-anchor="middle">07 · LOADING</text>
  <text class="board-label" x="660" y="1822" text-anchor="middle">08 · EMPTY ACTIVE LIST</text>
  <text class="board-label" x="1090" y="1822" text-anchor="middle">09 · LOAD FAILURE</text>

  <!-- Loading -->
  <g transform="translate(35 1842)">
    <use href="#phone-shell" />
    <text x="24" y="137" class="heading" font-size="28">Shopping list</text>
    <text x="24" y="162" class="secondary" font-size="12">Manage items already added through Slack.</text>
    <rect x="24" y="180" width="342" height="40" rx="10" fill="#E5EFF1" />
    <rect x="27" y="183" width="167" height="34" rx="8" fill="#FFFFFF" />
    <g transform="translate(24 240)" fill="#DDE9EB">
      <rect width="342" height="94" rx="12" fill="#FFFFFF" stroke="#C9E2E5" />
      <rect x="18" y="18" width="112" height="16" rx="8" />
      <rect x="18" y="46" width="178" height="12" rx="6" />
      <rect x="18" y="72" width="92" height="9" rx="4.5" />
      <rect x="286" y="16" width="40" height="40" rx="10" />
    </g>
    <g transform="translate(24 346)" fill="#DDE9EB">
      <rect width="342" height="94" rx="12" fill="#FFFFFF" stroke="#C9E2E5" />
      <rect x="18" y="18" width="150" height="16" rx="8" />
      <rect x="18" y="46" width="126" height="12" rx="6" />
      <rect x="18" y="72" width="108" height="9" rx="4.5" />
      <rect x="286" y="16" width="40" height="40" rx="10" />
    </g>
    <text x="24" y="477" class="secondary" font-size="10.5">Loading current household list…</text>
    <use href="#nav-dock" />
  </g>

  <!-- Empty -->
  <g transform="translate(465 1842)">
    <use href="#phone-shell" />
    <use href="#shopping-heading" />
    <g transform="translate(24 256)">
      <rect width="342" height="244" rx="14" fill="#FFFFFF" stroke="#C9E2E5" />
      <circle cx="171" cy="68" r="34" fill="#DFF4F4" />
      <path d="M153 57h36v27h-36Zm7-8v8m22-8v8M160 70h22" fill="none" stroke="#16679A" stroke-width="2" stroke-linecap="round" stroke-linejoin="round" />
      <text x="171" y="127" class="heading" font-size="18" text-anchor="middle">Nothing active right now</text>
      <text x="171" y="153" class="secondary" font-size="12" text-anchor="middle">Items added from Slack will appear here.</text>
      <text x="171" y="172" class="secondary" font-size="12" text-anchor="middle">Bought and removed history remains available.</text>
      <rect x="77" y="194" width="188" height="34" rx="8" fill="#DFF4F4" />
      <text x="171" y="216" fill="#16679A" font-size="11" font-weight="700" text-anchor="middle">Open History</text>
    </g>
    <use href="#nav-dock" />
  </g>

  <!-- Error -->
  <g transform="translate(895 1842)">
    <use href="#phone-shell" />
    <use href="#shopping-heading" />
    <g transform="translate(24 256)">
      <rect width="342" height="180" rx="14" fill="#FFFFFF" stroke="#C9E2E5" />
      <circle cx="42" cy="44" r="20" fill="#FDECEC" />
      <text x="42" y="51" fill="#B42318" font-size="20" font-weight="750" text-anchor="middle">!</text>
      <text x="76" y="40" class="heading" font-size="16">List unavailable</text>
      <text x="76" y="60" class="secondary" font-size="11">Your data was not changed.</text>
      <text x="22" y="97" class="body" font-size="11.5">We could not load the shopping list. Check your</text>
      <text x="22" y="115" class="body" font-size="11.5">connection and try again.</text>
      <rect x="22" y="132" width="298" height="34" rx="8" fill="#FFFFFF" stroke="#16679A" />
      <text x="171" y="154" fill="#16679A" font-size="11" font-weight="700" text-anchor="middle">Retry</text>
    </g>
    <use href="#nav-dock" />
  </g>

  <!-- Desktop adaptation -->
  <text class="board-label" x="660" y="2612" text-anchor="middle">10 · MEDIUM+ MANAGEMENT TABLE</text>
  <g transform="translate(35 2632)">
    <rect width="1250" height="520" rx="20" fill="#1D4E89" filter="url(#panel-shadow)" />
    <rect x="5" y="5" width="1240" height="510" rx="16" fill="#F4FAFB" />
    <text x="32" y="42" class="heading" font-size="25">Shopping list</text>
    <text x="32" y="67" class="secondary" font-size="11.5">Manage items already added through Slack.</text>
    <rect x="936" y="25" width="134" height="36" rx="9" fill="#FFFFFF" stroke="#16679A" />
    <text x="1003" y="48" fill="#16679A" font-size="11" font-weight="700" text-anchor="middle">Active 4</text>
    <rect x="1082" y="25" width="134" height="36" rx="9" fill="#FFFFFF" stroke="#C9E2E5" />
    <text x="1149" y="48" class="secondary" font-size="11" font-weight="700" text-anchor="middle">History 3</text>
    <line x1="32" y1="84" x2="1216" y2="84" stroke="#C9E2E5" />
    <text x="32" y="104" class="field-label">ITEM</text>
    <text x="410" y="104" class="field-label">DETAILS</text>
    <text x="760" y="104" class="field-label">ADDED</text>
    <text x="1088" y="104" class="field-label">ACTIONS</text>

    <g transform="translate(32 122)">
      <rect width="1184" height="92" rx="11" fill="#FFFFFF" stroke="#C9E2E5" />
      <circle cx="18" cy="28" r="7" fill="#DFF4F4" stroke="#3FC1C0" />
      <text x="36" y="32" class="heading" font-size="15">Milk</text>
      <text x="36" y="55" class="secondary" font-size="10">Active shopping item</text>
      <text x="378" y="32" class="body" font-size="13">1 carton</text>
      <text x="378" y="54" class="secondary" font-size="10.5">low fat</text>
      <text x="728" y="32" class="body" font-size="12">Today, 08:24</text>
      <text x="728" y="53" class="secondary" font-size="10.5">by Junda</text>
      <rect x="1004" y="24" width="70" height="38" rx="8" fill="#FFFFFF" stroke="#16679A" />
      <text x="1039" y="48" fill="#16679A" font-size="11" font-weight="700" text-anchor="middle">Edit</text>
      <rect x="1084" y="24" width="84" height="38" rx="8" fill="#FFFFFF" stroke="#C9E2E5" />
      <text x="1126" y="48" class="secondary" font-size="11" font-weight="700" text-anchor="middle">Remove</text>
    </g>

    <g transform="translate(32 226)">
      <rect width="1184" height="92" rx="11" fill="#FFFFFF" stroke="#C9E2E5" />
      <circle cx="18" cy="28" r="7" fill="#DFF4F4" stroke="#3FC1C0" />
      <text x="36" y="32" class="heading" font-size="15">Ground beef</text>
      <text x="36" y="55" class="secondary" font-size="10">Active shopping item</text>
      <text x="378" y="32" class="body" font-size="13">1 kg</text>
      <text x="378" y="54" class="secondary" font-size="10.5">for hamburgers</text>
      <text x="728" y="32" class="body" font-size="12">Yesterday, 18:06</text>
      <text x="728" y="53" class="secondary" font-size="10.5">by Wulan</text>
      <rect x="1004" y="24" width="70" height="38" rx="8" fill="#FFFFFF" stroke="#16679A" />
      <text x="1039" y="48" fill="#16679A" font-size="11" font-weight="700" text-anchor="middle">Edit</text>
      <rect x="1084" y="24" width="84" height="38" rx="8" fill="#FFFFFF" stroke="#C9E2E5" />
      <text x="1126" y="48" class="secondary" font-size="11" font-weight="700" text-anchor="middle">Remove</text>
    </g>

    <g transform="translate(32 330)">
      <rect width="1184" height="92" rx="11" fill="#FFFFFF" stroke="#C9E2E5" />
      <circle cx="18" cy="28" r="7" fill="#DFF4F4" stroke="#3FC1C0" />
      <text x="36" y="32" class="heading" font-size="15">Diapers</text>
      <text x="36" y="55" class="secondary" font-size="10">Active shopping item</text>
      <text x="378" y="32" class="body" font-size="13">Size L</text>
      <text x="378" y="54" class="secondary" font-size="10.5">for night</text>
      <text x="728" y="32" class="body" font-size="12">25 Jul, 21:40</text>
      <text x="728" y="53" class="secondary" font-size="10.5">by Wulan</text>
      <rect x="1004" y="24" width="70" height="38" rx="8" fill="#FFFFFF" stroke="#16679A" />
      <text x="1039" y="48" fill="#16679A" font-size="11" font-weight="700" text-anchor="middle">Edit</text>
      <rect x="1084" y="24" width="84" height="38" rx="8" fill="#FFFFFF" stroke="#C9E2E5" />
      <text x="1126" y="48" class="secondary" font-size="11" font-weight="700" text-anchor="middle">Remove</text>
    </g>

    <rect x="32" y="446" width="1184" height="44" rx="9" fill="#DFF4F4" />
    <text x="50" y="473" fill="#16679A" font-size="11" font-weight="700">New items are captured in Slack; this page only manages existing records.</text>
  </g>

  <text x="660" y="3185" class="board-note" text-anchor="middle">Desktop keeps Remove row-local; every removal is reversible, and Add remains absent everywhere.</text>
</svg>
